<svg width="225" height="54" viewBox="0 0 225 54" fill="none" xmlns="http://www.w3.org/2000/svg">
<path d="M26.8634 44.6324C7.51706 43.3656 0.716748 28.9397 0.167192 26.7437C-0.382363 24.5477 2.36365 16.0987 7.05248 10.2275C8.44003 8.48991 9.29122 8.79155 10.1349 9.59387C10.9786 10.3962 13.5983 13.0999 15.2038 14.6205C16.8093 16.141 17.823 16.7341 19.7658 17.0706C22.1147 17.4258 24.4879 17.5953 26.8634 17.5774C29.2386 17.5952 31.6115 17.4258 33.96 17.0706C35.9033 16.7324 36.9174 16.141 38.522 14.6205C40.1267 13.0999 42.7459 10.3962 43.5909 9.59387C44.4359 8.79155 45.2871 8.48991 46.6733 10.2275C51.3613 16.0987 54.1078 24.5468 53.5582 26.7437C53.0086 28.9406 46.2088 43.3656 26.8634 44.6324Z" fill="#FF3848"/>
<path d="M22.7959 35.0244C22.7959 36.1031 23.2244 37.1375 23.9871 37.9003C24.7499 38.663 25.7843 39.0915 26.863 39.0915C27.9416 39.0915 28.9761 38.663 29.7388 37.9003C30.5015 37.1375 30.93 36.1031 30.93 35.0244H22.7959Z" fill="black"/>
<path d="M46.1364 14.0254C45.9951 15.3464 45.1826 16.117 43.4529 16.4839C43.1382 16.8024 42.9627 17.2327 42.9649 17.6805C42.967 18.1282 43.1466 18.5568 43.4644 18.8723C43.768 19.1966 44.1844 19.3922 44.6278 19.4189C45.0713 19.4456 45.5081 19.3014 45.8484 19.0159C47.2008 17.915 46.9806 15.0893 46.1364 14.0254Z" fill="black"/>
<path d="M7.59003 14.0254C6.74588 15.0893 6.52571 17.915 7.87802 19.0159C8.21836 19.3014 8.65518 19.4456 9.09863 19.4189C9.54208 19.3922 9.95845 19.1966 10.2621 18.8723C10.5798 18.5568 10.7595 18.1282 10.7616 17.6805C10.7638 17.2327 10.5882 16.8024 10.2735 16.4839C8.54383 16.117 7.73139 15.3464 7.59003 14.0254Z" fill="black"/>
<path fill-rule="evenodd" clip-rule="evenodd" d="M19.1573 21.8571C19.7269 21.66 20.1358 21.1189 20.1358 20.4823C20.1358 19.679 19.4846 19.0278 18.6814 19.0278C17.8781 19.0278 17.2269 19.679 17.2269 20.4823C17.2269 21.1552 17.6838 21.7214 18.3043 21.8874V23.468L15.0564 26.0247C12.75 24.7157 8.5943 23.3859 7.20215 23.2197C7.88783 27.5416 11.2373 30.8495 11.5033 31.0323L10.7825 33.2976C9.99541 33.3162 9.36307 33.9601 9.36307 34.7516C9.36307 35.5549 10.0143 36.2061 10.8176 36.2061C11.6208 36.2061 12.272 35.5549 12.272 34.7516C12.272 34.2342 12.0019 33.7799 11.5949 33.5221L12.3344 31.4063C17.7783 31.8219 20.5792 29.9726 20.8119 29.6402C20.8119 29.6402 17.7991 27.3546 15.8667 26.4611L19.1978 23.8212L19.1573 21.8571ZM18.6814 19.9421C18.383 19.9421 18.1411 20.1839 18.1411 20.4823C18.1411 20.7807 18.383 21.0226 18.6814 21.0226C18.9797 21.0226 19.2216 20.7807 19.2216 20.4823C19.2216 20.1839 18.9797 19.9421 18.6814 19.9421ZM10.8176 34.2114C10.5192 34.2114 10.2773 34.4533 10.2773 34.7516C10.2773 35.05 10.5192 35.2919 10.8176 35.2919C11.1159 35.2919 11.3578 35.05 11.3578 34.7516C11.3578 34.4533 11.1159 34.2114 10.8176 34.2114Z" fill="black"/>
<path fill-rule="evenodd" clip-rule="evenodd" d="M34.5516 21.8571C33.9821 21.66 33.5731 21.1189 33.5731 20.4823C33.5731 19.679 34.2243 19.0278 35.0276 19.0278C35.8309 19.0278 36.4821 19.679 36.4821 20.4823C36.4821 21.1552 36.0252 21.7214 35.4047 21.8874V23.468L38.6526 26.0247C40.959 24.7157 45.1147 23.3859 46.5068 23.2197C45.8212 27.5416 42.4717 30.8495 42.2057 31.0323L42.9265 33.2976C43.7136 33.3162 44.3459 33.9601 44.3459 34.7516C44.3459 35.5549 43.6947 36.2061 42.8914 36.2061C42.0881 36.2061 41.4369 35.5549 41.4369 34.7516C41.4369 34.2342 41.7071 33.7799 42.1141 33.5221L41.3746 31.4063C35.9307 31.8219 33.1298 29.9726 32.897 29.6402C32.897 29.6402 35.9099 27.3546 37.8423 26.4611L34.5112 23.8212L34.5516 21.8571ZM35.0276 19.9421C35.326 19.9421 35.5679 20.1839 35.5679 20.4823C35.5679 20.7807 35.326 21.0226 35.0276 21.0226C34.7293 21.0226 34.4874 20.7807 34.4874 20.4823C34.4874 20.1839 34.7293 19.9421 35.0276 19.9421ZM42.8914 34.2114C43.1898 34.2114 43.4317 34.4533 43.4317 34.7516C43.4317 35.05 43.1898 35.2919 42.8914 35.2919C42.5931 35.2919 42.3512 35.05 42.3512 34.7516C42.3512 34.4533 42.5931 34.2114 42.8914 34.2114Z" fill="black"/>
<path d="M72.7864 28.8122L72.7226 28.8486C73.078 28.8486 73.3331 28.9671 73.4879 29.2039C73.5244 29.2768 73.6064 29.377 73.7248 29.5046C74.2715 30.0057 75.2099 30.2517 76.531 30.2517C78.1346 30.2517 78.9363 29.8964 78.9363 29.1857C78.9363 28.8668 78.7906 28.6482 78.4899 28.5388C78.1892 28.4295 77.7519 28.3566 77.1779 28.3293L74.0619 28.1835C73.6884 28.1744 73.3695 28.1562 73.1053 28.1288C72.8411 28.1015 72.4949 28.056 72.0757 27.9922C71.6566 27.9284 71.3013 27.8464 71.0098 27.7462C70.7182 27.646 70.3993 27.5002 70.0622 27.318C69.7251 27.1357 69.4518 26.9171 69.2422 26.6711C69.0327 26.4251 68.8596 26.1153 68.7138 25.7509C68.568 25.3864 68.4951 24.9673 68.4951 24.5027C68.4951 23.0449 69.1602 21.9425 70.4995 21.1954C71.8389 20.4483 73.6611 20.0747 75.9661 20.0747C78.089 20.0747 79.8474 20.4209 81.2414 21.1134C82.6354 21.8058 83.4645 22.7351 83.7287 23.9104C83.7743 24.1473 83.7378 24.3295 83.6103 24.4662C83.4827 24.6029 83.2914 24.6667 83.0272 24.6667H79.6014C79.1914 24.6667 78.9454 24.5938 78.8726 24.4571C78.827 24.3569 78.7906 24.2931 78.7632 24.2567C78.4079 23.5916 77.4786 23.2636 75.9753 23.2636C74.2988 23.2636 73.4606 23.6371 73.4606 24.3842C73.4606 24.612 73.5608 24.7851 73.7522 24.9127C73.9435 25.0402 74.1713 25.1131 74.4355 25.1404C74.6997 25.1678 75.1006 25.1951 75.6381 25.2224L78.8088 25.3773C82.2163 25.5413 83.9201 26.826 83.9292 29.2313C83.9292 32.083 81.4692 33.5043 76.5401 33.5043C74.1531 33.5043 72.2853 33.1581 70.9369 32.4657C69.5884 31.7732 68.7867 30.8166 68.5225 29.5957C68.4769 29.3497 68.5133 29.1584 68.6409 29.0217C68.7684 28.8851 68.9598 28.8122 69.224 28.8122H72.7864Z" fill="white"/>
<path d="M97.1766 20.7398C97.377 20.4209 97.6777 20.2569 98.0786 20.2478H102.233C102.734 20.2478 102.98 20.4938 102.98 20.9949V32.5659C102.98 33.067 102.734 33.313 102.233 33.313H98.8986C98.3974 33.313 98.1515 33.067 98.1515 32.5659V26.7804H97.9237L94.5526 31.7824C94.3886 32.0192 94.2155 32.1377 94.0242 32.1377C93.8328 32.1377 93.6597 32.0192 93.5048 31.7824L90.1247 26.7804H89.906V32.5659C89.906 33.067 89.66 33.313 89.1589 33.313H85.8151C85.314 33.313 85.068 33.067 85.068 32.5659V20.9949C85.068 20.4938 85.314 20.2478 85.8151 20.2478H89.9789C90.3798 20.2478 90.6804 20.4118 90.8718 20.7398L93.9148 25.4775H94.1335L97.1766 20.7398Z" fill="white"/>
<path d="M116.319 33.313L116.291 33.3221C115.845 33.3221 115.563 33.1126 115.444 32.7026L115.107 31.6821H109.64L109.303 32.7026C109.185 33.1126 108.902 33.3221 108.456 33.3221H104.821C104.547 33.3221 104.356 33.2401 104.247 33.0761C104.137 32.9121 104.128 32.7026 104.228 32.4566L108.429 20.8491C108.584 20.4483 108.866 20.2478 109.285 20.2478H115.499C115.927 20.2478 116.209 20.4483 116.355 20.8491L120.555 32.4566C120.656 32.7026 120.647 32.903 120.537 33.067C120.428 33.231 120.237 33.313 119.963 33.313H116.319ZM110.661 28.5115H114.068L112.547 23.8649H112.173L110.661 28.5115Z" fill="white"/>
<path d="M133.265 29.4135L136.737 32.3928C137.001 32.6206 137.101 32.8301 137.028 33.0215C136.955 33.2128 136.746 33.3039 136.399 33.3039H132.035C131.689 33.3039 131.379 33.1763 131.115 32.9121L127.48 29.2768H126.623V32.5568C126.623 33.0579 126.377 33.3039 125.876 33.3039H122.533C122.031 33.3039 121.785 33.0579 121.785 32.5568V20.9858C121.785 20.4847 122.031 20.2387 122.533 20.2387H132.09C133.766 20.2387 135.078 20.6487 136.017 21.4687C136.955 22.2887 137.429 23.382 137.429 24.7578C137.429 26.0424 137.065 27.072 136.336 27.8464C135.607 28.6208 134.605 29.0764 133.32 29.2222L133.265 29.4135ZM130.76 26.5344H130.751C131.871 26.5344 132.436 26.0698 132.436 25.1313C132.436 24.1929 131.88 23.7282 130.76 23.7282H126.623V26.5344H130.76Z" fill="white"/>
<path d="M151.806 20.2478C152.307 20.2478 152.553 20.4938 152.553 20.9949V23.054C152.553 23.5551 152.307 23.8011 151.806 23.8011H147.888V32.5659C147.888 33.067 147.642 33.313 147.141 33.313H143.807C143.306 33.313 143.06 33.067 143.06 32.5659V23.8011H139.142C138.641 23.8011 138.395 23.5551 138.395 23.054V20.9949C138.395 20.4938 138.641 20.2478 139.142 20.2478H151.806Z" fill="white"/>
<path d="M170.93 33.313L170.903 33.3221C170.456 33.3221 170.174 33.1126 170.056 32.7026L169.718 31.6821H164.252L163.915 32.7026C163.796 33.1126 163.514 33.3221 163.067 33.3221H159.432C159.159 33.3221 158.967 33.2401 158.858 33.0761C158.749 32.9121 158.74 32.7026 158.84 32.4566L163.04 20.8491C163.195 20.4483 163.477 20.2478 163.896 20.2478H170.11C170.538 20.2478 170.821 20.4483 170.967 20.8491L175.167 32.4566C175.267 32.7026 175.258 32.903 175.149 33.067C175.039 33.231 174.848 33.313 174.575 33.313H170.93ZM165.272 28.5115H168.68L167.158 23.8649H166.785L165.272 28.5115Z" fill="white"/>
<path d="M177.162 33.313L177.144 33.3221C176.643 33.3221 176.397 33.0761 176.397 32.575V21.004C176.397 20.5029 176.643 20.2569 177.144 20.2569H186.328C188.05 20.2569 189.371 20.676 190.291 21.5142C191.211 22.3525 191.667 23.5004 191.667 24.9582C191.667 26.416 191.211 27.564 190.291 28.4022C189.371 29.2404 188.059 29.6595 186.346 29.6595H181.253V32.5659C181.253 33.067 181.007 33.313 180.506 33.313H177.162ZM181.235 26.5526H185.143C185.654 26.5526 186.036 26.4251 186.291 26.1791C186.546 25.9331 186.674 25.5869 186.674 25.1495C186.674 24.6849 186.537 24.3387 186.264 24.1018C185.991 23.8649 185.617 23.7464 185.152 23.7464H181.235V26.5526Z" fill="white"/>
<path d="M193.544 33.313L193.525 33.3221C193.024 33.3221 192.778 33.0761 192.778 32.575V21.004C192.778 20.5029 193.024 20.2569 193.525 20.2569H202.709C204.431 20.2569 205.752 20.676 206.673 21.5142C207.593 22.3525 208.048 23.5004 208.048 24.9582C208.048 26.416 207.593 27.564 206.673 28.4022C205.752 29.2404 204.44 29.6595 202.728 29.6595H197.635V32.5659C197.635 33.067 197.389 33.313 196.887 33.313H193.544ZM197.616 26.5526H201.525C202.035 26.5526 202.418 26.4251 202.673 26.1791C202.928 25.9331 203.056 25.5869 203.056 25.1495C203.056 24.6849 202.919 24.3387 202.646 24.1018C202.372 23.8649 201.999 23.7464 201.534 23.7464H197.616V26.5526Z" fill="white"/>
<path d="M212.968 28.8122L212.905 28.8486C213.26 28.8486 213.515 28.9671 213.67 29.2039C213.706 29.2768 213.788 29.377 213.907 29.5046C214.453 30.0057 215.392 30.2517 216.713 30.2517C218.317 30.2517 219.118 29.8964 219.118 29.1857C219.118 28.8668 218.973 28.6482 218.672 28.5388C218.371 28.4295 217.934 28.3566 217.36 28.3293L214.244 28.1835C213.87 28.1744 213.551 28.1562 213.287 28.1288C213.023 28.1015 212.677 28.056 212.258 27.9922C211.839 27.9284 211.483 27.8464 211.192 27.7462C210.9 27.646 210.581 27.5002 210.244 27.318C209.907 27.1357 209.634 26.9171 209.424 26.6711C209.215 26.4251 209.042 26.1153 208.896 25.7509C208.75 25.3864 208.677 24.9673 208.677 24.5027C208.677 23.0449 209.342 21.9425 210.682 21.1954C212.021 20.4483 213.843 20.0747 216.148 20.0747C218.271 20.0747 220.029 20.4209 221.423 21.1134C222.817 21.8058 223.646 22.7351 223.911 23.9104C223.956 24.1473 223.92 24.3295 223.792 24.4662C223.665 24.6029 223.473 24.6667 223.209 24.6667H219.783C219.373 24.6667 219.127 24.5938 219.055 24.4571C219.009 24.3569 218.973 24.2931 218.945 24.2567C218.59 23.5916 217.661 23.2636 216.157 23.2636C214.481 23.2636 213.643 23.6371 213.643 24.3842C213.643 24.612 213.743 24.7851 213.934 24.9127C214.125 25.0402 214.353 25.1131 214.617 25.1404C214.882 25.1678 215.283 25.1951 215.82 25.2224L218.991 25.3773C222.398 25.5413 224.102 26.826 224.111 29.2313C224.111 32.083 221.651 33.5043 216.722 33.5043C214.335 33.5043 212.467 33.1581 211.119 32.4657C209.77 31.7732 208.969 30.8166 208.704 29.5957C208.659 29.3497 208.695 29.1584 208.823 29.0217C208.95 28.8851 209.142 28.8122 209.406 28.8122H212.968Z" fill="white"/>
</svg>
